{"title":"Star Wars The Clone Wars S03E17 HDTV XviD-FQM {TheCloon}","uid":6169909,"size":183786269,"categoryP":"video","categoryS":"tv_shows","magnet":"?xt=urn:btih:658741cd737c7bbfe0f10f6c536aa835000f71e0&amp;dn=Star+Wars+The+Clone+Wars+S03E17+HDTV+XviD-FQM+%7BTheCloon%7D&amp;tr=udp%3A%2F%2Ftracker.openbittorrent.com%3A80&amp;tr=udp%3A%2F%2Fopen.demonii.com%3A1337&amp;tr=udp%3A%2F%2Ftracker.coppersurfer.tk%3A6969&amp;tr=udp%3A%2F%2Fexodus.desync.com%3A6969","seeders":0,"leechers":1,"uploader":"TheCloon","files":4,"time":1297529644,"description":"###\n\nStar Wars The Clone Wars S03E17 HDTV XviD-FQM\n\n###\n\nPlot:\n\nThe Grand Clone Army of the Republic, led by Jedi Masters Yoda, Mace Windu, Obi-Wan Kenobi and other Masters must fight the New Droid Army of the Separatists to defend the Republic and the political stability of the galaxy. They face the cunning Dooku, the vicious General Grievous and the relentless Asajj Ventress on the field of battle, all the while, behind the scenes, Senator Palpatine manipulates things to his benefit.\n\nMeanwhile Jedi Knight Anakin Skywalker takes on a young Padawan apprentice named Ashoka Tano and is trying to train her to become a Jedi Knight in the midst of the Galactic War. \n\n###\n\n[code]\n\nFormat                           : AVI\nFormat/Info                      : Audio Video Interleave\nFile size                        : 175 MiB\nDuration                         : 21mn 36s\nOverall bit rate                 : 1 134 Kbps\nWriting application              : transcode-1.0.4\n\nVideo\nID                               : 0\nFormat                           : MPEG-4 Visual\nFormat profile                   : Advanced Simple@L5\nFormat settings, BVOP            : 2\nFormat settings, QPel            : No\nFormat settings, GMC             : No warppoints\nFormat settings, Matrix          : Default (H.263)\nCodec ID                         : XVID\nCodec ID/Hint                    : XviD\nDuration                         : 21mn 36s\nBit rate                         : 974 Kbps\nWidth                            : 624 pixels\nHeight                           : 352 pixels\nDisplay aspect ratio             : 16:9\nFrame rate                       : 23.976 fps\nColor space                      : YUV\nChroma subsampling               : 4:2:0\nBit depth                        : 8 bits\nScan type                        : Progressive\nCompression mode                 : Lossy\nBits/(Pixel*Frame)               : 0.185\nStream size                      : 151 MiB (86%)\nWriting library                  : XviD 1.2.1 (UTC 2008-12-04)\n\nAudio\nID                               : 1\nFormat                           : MPEG Audio\nFormat version                   : Version 1\nFormat profile                   : Layer 3\nCodec ID                         : 55\nCodec ID/Hint                    : MP3\nDuration                         : 21mn 36s\nBit rate mode                    : Variable\nBit rate                         : 128 Kbps\nChannel(s)                       : 2 channels\nSampling rate                    : 48.0 KHz\nCompression mode                 : Lossy\nStream size                      : 22.8 MiB (13%)\nAlignment                        : Aligned on interleaves\nInterleave, duration             : 24 ms (0.58 video frame)\nWriting library                  : LAME3.98.2\n[/code]\n\n","torrent":{"xt":"urn:btih:658741cd737c7bbfe0f10f6c536aa835000f71e0","amp;dn":"Star+Wars+The+Clone+Wars+S03E17+HDTV+XviD-FQM+%7BTheCloon%7D","amp;tr":["udp%3A%2F%2Ftracker.openbittorrent.com%3A80","udp%3A%2F%2Fopen.demonii.com%3A1337","udp%3A%2F%2Ftracker.coppersurfer.tk%3A6969","udp%3A%2F%2Fexodus.desync.com%3A6969"],"infoHash":"658741cd737c7bbfe0f10f6c536aa835000f71e0","infoHashBuffer":{"type":"Buffer","data":[101,135,65,205,115,124,123,191,224,241,15,108,83,106,168,53,0,15,113,224]},"announce":[],"urlList":[]}}